<?xml version="1.0" standalone="no"?>
<!DOCTYPE svg PUBLIC "-//W3C//DTD SVG 20010904//EN"
 "http://www.w3.org/TR/2001/REC-SVG-20010904/DTD/svg10.dtd">
<svg version="1.0" xmlns="http://www.w3.org/2000/svg"
 width="300.000000pt" height="300.000000pt" viewBox="0 0 300.000000 300.000000"
 preserveAspectRatio="xMidYMid meet">
<metadata>
Created by potrace 1.10, written by Peter Selinger 2001-2011
</metadata>
<g transform="translate(0.000000,300.000000) scale(0.050000,-0.050000)"
fill="#141771" stroke="none">
<path d="M1631 3367 c-66 -15 -130 -24 -142 -19 -12 4 -35 1 -50 -8 -15 -10
-41 -9 -59 0 -18 9 -44 10 -59 0 -18 -10 14 -21 91 -31 65 -8 125 -18 134 -23
31 -18 -52 -87 -89 -75 -31 10 -51 -14 -32 -37 3 -4 -18 -34 -47 -68 -87 -103
-64 -391 37 -457 59 -39 33 -67 -65 -70 -57 -2 -56 -3 20 -27 44 -14 127 -49
184 -79 129 -65 282 -71 397 -15 43 21 87 33 97 27 10 -6 12 -1 5 11 -15 24
54 70 74 50 20 -20 15 33 -7 74 -24 46 15 80 42 38 21 -33 63 14 45 51 -5 12
3 5 18 -14 16 -19 35 -28 43 -20 8 7 8 -2 1 -21 -9 -24 -3 -34 20 -34 18 0 28
-9 21 -20 -7 -11 -4 -20 7 -20 11 0 23 10 27 23 8 22 123 28 206 10 22 -4 49
-1 60 7 11 8 34 15 50 15 17 0 46 7 65 15 25 10 35 5 35 -17 0 -43 37 -61 70
-33 34 28 247 41 263 16 6 -10 37 -13 70 -5 34 7 70 3 87 -11 21 -17 38 -17
74 3 56 31 98 34 132 9 39 -28 469 -17 488 13 13 19 23 17 44 -10 36 -47 102
-44 150 7 40 43 82 37 82 -12 0 -33 141 -18 165 18 10 15 14 14 15 -3 0 -14
14 -25 31 -25 20 0 26 9 16 25 -10 17 -4 16 19 -2 28 -23 34 -23 34 -1 0 20 5
21 24 2 52 -52 227 -30 232 30 2 30 15 61 29 69 70 43 91 65 82 88 -5 14 -1
30 9 36 41 26 -24 213 -74 213 -23 0 -69 172 -53 198 8 14 -18 19 -76 16 -49
-2 -85 -11 -80 -19 5 -8 -5 -15 -23 -15 -18 0 -27 -9 -21 -19 7 -10 38 -16 70
-12 37 5 62 -3 69 -20 12 -32 -29 -31 -53 1 -10 13 -22 10 -33 -8 -10 -15 -28
-21 -40 -13 -12 7 -22 4 -22 -8 0 -13 -19 -17 -46 -10 -25 6 -72 1 -104 -11
-49 -19 -63 -17 -83 10 -13 18 -36 35 -50 37 -59 10 -103 47 -76 64 16 9 30 7
35 -8 8 -26 44 -12 44 18 0 11 -28 19 -61 19 -34 0 -57 -7 -51 -16 19 -31 -21
-64 -89 -72 -98 -13 -164 6 -150 43 9 22 1 27 -29 19 -22 -6 -36 -3 -30 6 5 9
-3 21 -19 27 -18 7 -25 1 -19 -15 5 -14 -4 -37 -20 -50 -38 -32 -119 -9 -104
30 15 39 -8 35 -42 -7 -21 -25 -31 -28 -39 -10 -6 14 -19 25 -30 25 -11 0 -14
-9 -7 -20 20 -32 -24 -23 -59 11 -28 29 -31 27 -31 -20 0 -28 -8 -51 -18 -51
-30 0 -66 57 -51 82 10 15 7 19 -8 10 -13 -8 -23 -3 -23 12 -1 21 -4 20 -18
-1 -12 -19 -21 -21 -31 -5 -7 12 -23 22 -36 22 -12 0 -5 -17 17 -37 21 -21 45
-34 53 -29 25 14 17 -15 -14 -45 -37 -38 -89 -37 -104 1 -7 20 -29 27 -64 21
-46 -8 -49 -6 -19 16 23 18 27 34 15 54 -21 32 -58 -4 -59 -57 0 -15 -9 -21
-20 -14 -11 7 -20 4 -20 -7 0 -10 -44 -22 -97 -26 -72 -5 -95 0 -88 18 5 14
-1 25 -13 25 -12 0 -22 -9 -22 -20 0 -11 -22 -18 -50 -15 -27 2 -50 12 -50 22
0 11 -20 2 -43 -19 -24 -21 -38 -28 -31 -15 8 13 -4 27 -27 33 -36 9 -38 7
-15 -21 23 -28 21 -29 -18 -8 -24 12 -57 17 -75 11 -17 -7 -74 -2 -126 11 -87
22 -97 21 -129 -19 -19 -24 -44 -38 -54 -31 -11 6 -25 3 -32 -9 -20 -32 -44
-23 -56 20 -6 22 -25 40 -44 40 -64 0 -118 87 -65 105 14 5 -11 20 -55 34 -44
15 -89 33 -100 41 -31 23 -128 18 -259 -13z m315 -219 c244 -161 129 -550
-162 -554 -239 -4 -383 225 -279 441 87 180 270 227 441 113z m482 -120 c55
-21 39 -74 -17 -60 -27 7 -54 3 -61 -7 -6 -11 11 -26 40 -33 67 -17 97 -71 63
-117 -32 -44 -183 -37 -183 9 0 22 18 28 67 23 44 -4 63 1 54 15 -7 12 -30 22
-50 22 -65 0 -90 53 -53 110 32 49 78 62 140 38z m271 -17 c36 -43 7 -71 -59
-58 -44 9 -63 3 -72 -21 -18 -46 31 -97 80 -84 22 6 50 2 63 -9 17 -14 36 9
67 81 50 117 110 136 143 45 61 -170 110 -194 93 -47 -15 123 22 147 94 61 60
-72 72 -73 72 -9 0 31 11 50 30 50 23 0 30 -27 30 -120 0 -134 -33 -160 -92
-70 -41 63 -68 64 -68 2 0 -42 -9 -47 -80 -48 -44 -1 -80 7 -80 17 0 11 -27
19 -60 19 -33 0 -60 -10 -60 -22 0 -14 -21 -19 -56 -12 -31 6 -68 4 -83 -5
-80 -50 -195 76 -160 172 30 81 150 116 198 58z m1552 -20 c63 -63 55 -147
-19 -196 -36 -24 -145 -17 -168 10 -113 137 62 311 187 186z m219 -88 c0 -170
-39 -167 -46 4 -5 105 0 135 20 128 18 -6 26 -48 26 -132z m253 104 c43 -39
51 -171 12 -202 -89 -72 -220 -9 -220 105 0 106 131 167 208 97z m-1329 -42
l45 -55 0 55 c1 41 11 55 41 55 36 0 40 -13 40 -120 0 -142 -45 -164 -111 -55
l-39 65 -6 -65 c-13 -132 -84 -86 -84 55 0 139 36 160 114 65z m353 23 c-8
-19 -27 -27 -50 -21 -20 5 -42 2 -47 -7 -6 -10 9 -20 33 -24 71 -10 70 -56 -1
-56 -34 0 -62 -9 -62 -20 0 -11 32 -20 70 -20 49 0 70 -9 70 -30 0 -23 -24
-30 -100 -30 l-100 0 0 120 0 120 99 0 c83 0 98 -5 88 -32z m229 8 c31 -31 31
-110 -1 -122 -20 -7 -20 -14 0 -35 36 -38 31 -59 -13 -59 -21 0 -43 14 -49 30
-7 17 -21 30 -32 30 -12 0 -21 -13 -21 -30 0 -17 -18 -30 -40 -30 -36 0 -40
13 -40 120 l0 120 86 0 c47 0 97 -11 110 -24z m404 -176 c0 -22 -13 -40 -30
-40 -17 0 -30 18 -30 40 0 22 13 40 30 40 17 0 30 -18 30 -40z"/>
<path d="M1654 3040 c-99 -79 -79 -251 35 -303 47 -22 207 -6 183 17 -6 7 -2
24 11 39 12 15 14 27 4 27 -9 0 -6 7 7 16 27 17 70 184 47 184 -20 0 -83 -71
-110 -125 -29 -58 -99 -60 -107 -2 -5 32 9 48 56 64 69 24 64 63 -8 63 -104 0
-146 -131 -69 -214 50 -53 39 -79 -19 -48 -166 89 -50 331 142 294 46 -8 55
-6 34 8 -50 32 -151 22 -206 -20z"/>
<path d="M4114 2948 c-21 -21 -17 -84 6 -98 40 -25 103 12 96 57 -6 43 -73 69
-102 41z"/>
<path d="M4581 2951 c-53 -64 25 -162 94 -119 69 44 45 148 -35 148 -19 0 -46
-13 -59 -29z"/>
<path d="M3873 2966 c-7 -7 -13 -25 -13 -39 0 -30 52 -37 69 -9 13 22 -38 67
-56 48z"/>
<path d="M1218 3245 c-2 -19 -1 -43 1 -53 2 -10 -9 -26 -23 -35 -14 -9 -17
-17 -5 -17 13 0 23 -89 26 -234 7 -344 23 -303 23 61 0 258 -13 418 -22 278z"/>
</g>
</svg>
